<svg width="64" height="64" viewBox="0 0 64 64" fill="none" xmlns="http://www.w3.org/2000/svg" role="img" aria-labelledby="title desc">
  <title id="title">Cebula favicon</title>
  <desc id="desc">Rounded square icon with hexagonal calculator and network mark.</desc>
  <rect x="1" y="1" width="62" height="62" rx="13" fill="url(#bg)"/>
  <rect x="1" y="1" width="62" height="62" rx="13" stroke="#1A3F63"/>
  <path d="M32 9L49 18.8V39.2L32 49L15 39.2V18.8L32 9Z" stroke="#F2F7FB" stroke-width="3.2" stroke-linejoin="round"/>
  <circle cx="19.6" cy="20.4" r="2.8" fill="#D6F8F2"/>
  <circle cx="19.6" cy="32.8" r="2.8" fill="#17CBB5"/>
  <circle cx="27" cy="26.6" r="2.8" fill="#87EFE2"/>
  <path d="M21.8 22.3L24.7 24.5" stroke="#87EFE2" stroke-width="1.9" stroke-linecap="round"/>
  <path d="M21.6 31.2L24.8 28.8" stroke="#87EFE2" stroke-width="1.9" stroke-linecap="round"/>
  <rect x="30" y="19.5" width="14.8" height="18" rx="2.1" fill="#14BBA6"/>
  <path d="M34.2 23.7H37.8" stroke="#05243F" stroke-width="1.8" stroke-linecap="round"/>
  <path d="M36 21.9V25.5" stroke="#05243F" stroke-width="1.8" stroke-linecap="round"/>
  <path d="M40.3 23.7H42.9" stroke="#05243F" stroke-width="1.8" stroke-linecap="round"/>
  <path d="M34.4 31.8L37.6 28.6" stroke="#05243F" stroke-width="1.8" stroke-linecap="round"/>
  <path d="M34.4 28.6L37.6 31.8" stroke="#05243F" stroke-width="1.8" stroke-linecap="round"/>
  <path d="M40.5 31.2H43.1" stroke="#05243F" stroke-width="1.8" stroke-linecap="round"/>
  <path d="M40.5 33.8H43.1" stroke="#05243F" stroke-width="1.8" stroke-linecap="round"/>
  <defs>
    <linearGradient id="bg" x1="32" y1="0" x2="32" y2="64" gradientUnits="userSpaceOnUse">
      <stop stop-color="#07254A"/>
      <stop offset="1" stop-color="#031326"/>
    </linearGradient>
  </defs>
</svg>
